<svg width="577" height="575" viewBox="0 0 577 575" fill="none" xmlns="http://www.w3.org/2000/svg">
<path d="M68.3446 190.142H100.255V335.865C84.2996 339.056 72.0674 340.12 59.3034 340.12C21.0112 340.12 0.801514 322.569 0.801514 289.596C0.801514 257.685 22.0749 236.412 55.0487 236.412C60.3671 236.412 64.0899 236.944 68.8764 238.007V190.142H68.3446V190.142ZM68.3446 263.536C64.6217 262.472 61.4307 261.94 57.7079 261.94C41.7528 261.94 32.7116 271.513 32.7116 289.064C32.7116 306.082 41.7528 315.124 57.7079 315.124C61.4307 315.124 64.0899 315.124 68.3446 314.06V263.536ZM150.247 239.071V311.933C150.247 336.929 148.652 349.161 142.802 359.798C137.483 369.903 131.101 376.285 117.273 383.199L88.0225 369.371C101.85 362.989 108.764 357.139 113.019 348.097C117.273 339.056 118.869 328.419 118.869 301.296V239.071H150.247V239.071ZM118.869 190.674H150.247V223.116H118.869V190.674ZM169.393 245.985C183.221 239.603 196.517 236.412 210.876 236.412C226.831 236.412 237.468 240.667 242.255 249.176C244.914 253.963 245.978 259.813 245.978 273.109V336.929C231.618 339.056 214.067 340.652 200.772 340.652C174.18 340.652 162.479 331.611 162.479 310.869C162.479 288.532 178.434 278.427 216.727 275.236V268.322C216.727 262.472 214.067 260.345 206.09 260.345C194.39 260.345 181.094 263.536 168.861 269.918V245.985H169.393V245.985ZM218.322 295.978C197.581 298.105 190.667 301.296 190.667 309.273C190.667 315.655 194.39 318.315 202.899 318.315C207.685 318.315 211.94 317.783 217.79 316.719V295.978H218.322V295.978ZM261.401 243.858C280.015 239.071 295.438 236.944 310.861 236.944C326.817 236.944 338.517 240.667 345.431 247.581C351.813 254.494 353.94 261.94 353.94 277.363V339.056H322.562V278.427C322.562 266.195 318.307 261.94 307.139 261.94C302.884 261.94 299.161 262.472 292.779 264.067V339.056H261.401V243.858V243.858ZM366.172 356.075C377.341 361.925 388.509 364.584 399.678 364.584C420.42 364.584 428.929 356.075 428.929 336.397V335.865C422.547 339.056 416.697 340.12 408.719 340.12C381.064 340.12 363.513 322.037 363.513 293.318C363.513 257.685 389.573 237.476 435.311 237.476C448.607 237.476 461.371 239.071 476.262 241.73L465.625 264.599C457.116 263.004 465.094 264.599 458.712 263.536V266.727L459.243 280.022V297.041C459.243 301.296 459.243 305.551 459.775 309.805V318.315C459.775 345.438 457.648 358.202 450.734 368.307C441.161 383.73 424.142 391.176 399.678 391.176C387.446 391.176 376.809 389.581 365.64 384.794V356.075H366.172V356.075ZM428.929 262.472H425.738C419.356 262.472 412.442 264.067 407.655 266.727C400.21 270.981 395.955 278.959 395.955 289.596C395.955 305.551 403.933 314.592 417.76 314.592C422.015 314.592 425.738 313.528 429.461 312.464V262.472H428.929ZM525.723 236.412C557.101 236.412 576.247 256.09 576.247 288.532C576.247 321.506 556.037 342.247 524.127 342.247C492.749 342.247 473.071 322.569 473.071 290.659C473.603 257.154 493.813 236.412 525.723 236.412V236.412ZM525.191 316.187C537.423 316.187 544.337 306.082 544.337 288.532C544.337 271.513 537.423 260.876 525.191 260.876C512.959 260.876 505.513 270.981 505.513 288.532C506.045 306.614 512.959 316.187 525.191 316.187Z" fill="#F4F4F4"/>
</svg>
