<svg width="512" height="490" viewBox="0 0 512 490" fill="none" xmlns="http://www.w3.org/2000/svg">
<g id="esProject">
<g id="computer">
<path id="Vector" d="M283.887 401.771L197.208 432.676L193.921 444.162C189.255 460.511 171.525 473.883 154.527 473.883V481.61H334.294L283.887 401.771Z" fill="#626262"/>
<path id="Vector_2" d="M318.079 444.163L305.964 401.771L256 370.865L206.037 401.771L197.208 432.676H283.887L287.174 444.163C291.84 460.512 309.57 473.883 326.568 473.883L342.021 481.61L357.473 473.883C340.475 473.883 322.746 460.512 318.079 444.163Z" fill="#444444"/>
<path id="Vector_3" d="M450.189 401.77H481.095C498.093 401.77 512 387.863 512 370.865V309.054L450.189 247.243V401.77Z" fill="#444444"/>
<path id="Vector_4" d="M0 370.865C0 387.863 13.9074 401.771 30.9054 401.771H450.189C467.187 401.771 481.095 387.863 481.095 370.865V185.433L0 309.054V370.865Z" fill="#626262"/>
<path id="Vector_5" d="M481.095 0H450.189L481.095 309.054H512V30.9054C512 13.9074 498.093 0 481.095 0Z" fill="black"/>
<path id="Vector_6" d="M481.095 30.9054C481.095 13.9074 467.187 0 450.189 0H30.9054C13.9074 0 0 13.9074 0 30.9054V309.054H481.095V278.149V170.5V30.9054Z" fill="#121212"/>
<path id="Vector_7" d="M256 370.865C264.534 370.865 271.452 363.947 271.452 355.413C271.452 346.878 264.534 339.96 256 339.96C247.465 339.96 240.547 346.878 240.547 355.413C240.547 363.947 247.465 370.865 256 370.865Z" fill="white"/>
<path id="Vector_8" d="M415.678 489.336H96.3221C92.0551 489.336 88.5957 485.877 88.5957 481.609C88.5957 477.341 92.0551 473.883 96.3221 473.883H415.678C419.945 473.883 423.405 477.341 423.405 481.609C423.405 485.877 419.945 489.336 415.678 489.336Z" fill="#444444"/>
</g>
<g id="es">
<g id="bg">
<path id="Vector_9" d="M481 31.0226L31.0973 31C31.0697 31.0123 31.0464 277.995 31 278C31 278 480.978 277.979 480.989 277.979C480.994 277.979 480.954 31.0268 481 31.0226Z" fill="#0D0D0D"/>
<path id="Vector 6" d="M117 49.0289L132.527 278H397.492L402 49.0289L218.178 45.0206L210.163 35L117 49.0289Z" fill="#C4C4C4"/>
<path id="Vector 5" d="M454 188.5L481 154V31H237C240 36 240.5 45.5 240.5 45.5L431.5 188.5C452.5 191.5 454 188.5 454 188.5Z" fill="#C9C9C9"/>
<path id="Ellipse 1" d="M362 184C362 239.228 316.728 278 261.5 278C206.272 278 162 239.228 162 184C162 128.772 206.772 84 262 84C317.228 84 362 128.772 362 184Z" fill="#EBEBEB"/>
<path id="Vector_10" d="M481 31.0226L31.0973 31C31.0697 31.0123 31.0464 277.995 31 278C31 278 480.978 277.979 480.989 277.979C480.994 277.979 480.954 31.0268 481 31.0226Z" fill="#0D0D0D" fill-opacity="0.79"/>
</g>
<g id="navbar">
<rect id="Rectangle 14" x="43" y="39" width="19" height="14" rx="3" fill="#BCE0BE"/>
<rect id="Rectangle 15" x="78" y="43" width="14" height="5" rx="1" fill="white"/>
<rect id="Rectangle 16" x="97" y="43" width="22" height="5" rx="1" fill="white"/>
<rect id="Rectangle 17" x="124" y="43" width="23" height="5" rx="1" fill="white"/>
<rect id="Rectangle 18" x="152" y="43" width="23" height="5" rx="1" fill="white"/>
<rect id="Rectangle 19" x="433" y="42" width="8" height="8" rx="2" fill="white"/>
<rect id="Rectangle 20" x="447" y="42" width="8" height="8" rx="2" fill="white"/>
<rect id="Rectangle 21" x="461" y="42" width="8" height="8" rx="2" fill="white"/>
</g>
<g id="heading">
<rect id="Rectangle 22" x="74" y="120" width="162" height="29" rx="4" fill="#FF4A13"/>
<rect id="Rectangle 23" x="74" y="165" width="265" height="29" rx="4" fill="#FF4A13"/>
<rect id="Rectangle 24" x="74" y="210" width="182" height="9" rx="2" fill="white"/>
</g>
</g>
</g>
</svg>
