<svg width="512" height="490" viewBox="0 0 512 490" fill="none" xmlns="http://www.w3.org/2000/svg">
<g id="feProject">
<g id="computer">
<path id="Vector" d="M283.887 401.771L197.208 432.676L193.921 444.162C189.255 460.511 171.525 473.883 154.527 473.883V481.61H334.294L283.887 401.771Z" fill="#626262"/>
<path id="Vector_2" d="M318.078 444.163L305.963 401.771L255.999 370.865L206.036 401.771L197.207 432.676H283.886L287.173 444.163C291.839 460.512 309.569 473.883 326.567 473.883L342.02 481.61L357.472 473.883C340.474 473.883 322.745 460.512 318.078 444.163Z" fill="#444444"/>
<path id="Vector_3" d="M450.189 401.77H481.095C498.093 401.77 512 387.863 512 370.865V309.054L450.189 247.243V401.77Z" fill="#444444"/>
<path id="Vector_4" d="M0 370.865C0 387.863 13.9074 401.771 30.9054 401.771H450.189C467.187 401.771 481.095 387.863 481.095 370.865V185.433L0 309.054V370.865Z" fill="#626262"/>
<path id="Vector_5" d="M481.095 0H450.189L481.095 309.054H512V30.9054C512 13.9074 498.093 0 481.095 0Z" fill="black"/>
<path id="Vector_6" d="M481.095 30.9054C481.095 13.9074 467.187 0 450.189 0H30.9054C13.9074 0 0 13.9074 0 30.9054V309.054H481.095V278.149V170.5V30.9054Z" fill="#121212"/>
<path id="Vector_7" d="M256 370.865C264.534 370.865 271.452 363.947 271.452 355.413C271.452 346.878 264.534 339.96 256 339.96C247.465 339.96 240.547 346.878 240.547 355.413C240.547 363.947 247.465 370.865 256 370.865Z" fill="white"/>
<path id="Vector_8" d="M415.678 489.336H96.3221C92.0551 489.336 88.5957 485.877 88.5957 481.609C88.5957 477.341 92.0551 473.883 96.3221 473.883H415.678C419.945 473.883 423.405 477.341 423.405 481.609C423.405 485.877 419.945 489.336 415.678 489.336Z" fill="#444444"/>
</g>
<g id="content">
<path id="Vector_9" d="M481 31.0226L31.0973 31C31.0697 31.0123 31.0464 277.995 31 278C31 278 480.978 277.979 480.989 277.979C480.994 277.979 480.954 31.0268 481 31.0226Z" fill="#FA756B"/>
<rect id="Rectangle 43" x="172" y="53" width="169" height="42" rx="10" fill="white"/>
<path id="Rectangle 50" d="M262 173C262 167.477 266.477 163 272 163H440C445.523 163 450 167.477 450 173V278H262V173Z" fill="white"/>
<path id="Rectangle 51" d="M63 173C63 167.477 67.4772 163 73 163H241C246.523 163 251 167.477 251 173V278H63V173Z" fill="white"/>
<rect id="Rectangle 44" x="226" y="104" width="61" height="10" rx="3" fill="white"/>
<rect id="Rectangle 45" x="167" y="128" width="37" height="10" rx="3" fill="#FFE485"/>
<rect id="Rectangle 46" x="308" y="128" width="37" height="10" rx="3" fill="#FFE485"/>
<rect id="Rectangle 47" x="261" y="128" width="37" height="10" rx="3" fill="#FFE485"/>
<rect id="Rectangle 48" x="214" y="128" width="37" height="10" rx="3" fill="#FFE485"/>
</g>
</g>
</svg>
