<svg width="502" height="502" viewBox="0 0 502 502" fill="none" xmlns="http://www.w3.org/2000/svg">
<path d="M197.681 274.752C186.021 265.575 173.497 256.721 164.967 244.305C147.045 222.388 133.225 197.124 123.832 170.456C118.11 153.182 116.167 134.612 108.825 117.877C101.159 105.785 110.12 92.6129 123.4 88.7261C129.338 87.5385 139.703 82.0322 127.179 86.0269C115.951 94.2324 114.871 78.5773 126.423 77.6056C134.305 76.5259 137.22 70.1559 134.521 64.3257C126.099 58.8195 154.926 52.7734 140.459 44.5679C125.344 28.265 161.62 25.134 152.659 43.5962C150.5 57.8478 178.031 41.0051 171.661 57.4159C178.139 65.2974 195.953 59.2513 195.522 70.2639C205.023 70.9117 208.262 78.9012 217.115 79.441C226.292 83.5437 243.027 86.8907 246.05 97.2554C236.981 104.489 215.819 82.3561 214.848 102.33C217.655 131.805 216.899 162.251 227.696 190.43C232.77 207.489 245.186 220.877 256.415 234.157C267.103 247.112 281.571 256.29 296.362 263.955C309.318 270.109 323.246 274.104 337.389 276.695C343.111 272.269 353.26 256.074 362.221 262.876C362.653 270.649 344.515 279.07 361.358 278.207C371.291 275.184 378.2 285.872 386.298 276.263C393.855 285.224 417.608 270.541 412.21 288.787C404.976 293.43 394.395 290.623 387.162 297.101C375.177 291.163 365.676 302.391 352.504 300.988C337.821 303.579 322.814 304.658 307.914 304.658C283.514 302.715 258.466 301.959 235.253 293.43C221.973 289.651 209.233 282.201 197.681 274.752ZM218.41 283.713C231.15 289.219 243.675 295.049 257.71 296.885C279.951 300.016 302.948 304.766 325.189 300.448C315.04 295.913 304.675 302.175 294.527 297.209C282.434 299.8 269.478 296.561 257.278 294.941C243.351 288.679 228.235 284.469 215.171 276.371C198.869 270.433 223.593 284.037 228.019 285.117C238.276 290.947 216.791 282.093 213.768 279.718C205.239 274.968 204.159 275.939 212.904 280.798C214.74 281.77 216.467 282.849 218.41 283.713ZM194.01 266.546C206.426 271.189 193.902 257.801 188.288 258.557C185.805 254.238 178.679 251.431 183.645 249.056C174.684 252.187 174.252 237.18 169.934 239.339C160.433 236.316 166.263 225.627 154.818 219.149C153.739 212.239 143.59 206.301 140.243 195.829C138.839 190.538 128.691 175.207 134.845 189.459C140.135 203.17 149.42 214.939 157.194 226.599C163.24 237.719 170.366 249.38 181.27 256.398C185.265 259.96 188.828 265.359 194.01 266.546ZM248.641 289.543C253.715 292.782 278.332 296.561 262.892 290.839C260.301 291.379 234.389 283.497 248.641 289.543ZM192.499 243.981C198.437 248.516 216.575 244.521 201.568 241.282C194.766 237.719 179.543 235.236 189.907 243.442L192.499 243.981ZM221.326 259.313C235.901 263.415 209.125 250.135 217.763 257.801L219.706 258.665L221.326 259.313ZM221.433 251.539C232.014 252.943 208.801 244.305 219.058 250.783L221.433 251.539ZM258.25 274.212C268.183 268.274 264.836 288.032 274.985 275.831C285.026 268.49 266.347 284.901 278.656 277.127C287.617 271.189 300.789 279.934 309.102 282.849C315.04 282.525 320.87 288.032 327.024 284.685C338.793 281.554 303.92 279.934 313.097 274.32C302.3 277.451 294.311 270.541 289.02 263.631C276.928 260.824 262.893 254.67 256.846 243.873C254.363 239.879 260.409 244.413 254.687 237.827C247.345 231.349 243.782 224.008 238.816 216.126C232.986 212.995 232.23 203.818 231.69 215.802C231.69 208.245 224.672 203.17 222.837 205.222C222.837 197.88 230.503 201.551 225.104 196.152C223.917 188.595 220.138 180.713 219.058 172.184C217.331 168.081 218.842 159.228 213.012 168.621C210.853 178.446 212.364 156.529 215.603 163.763C219.922 156.421 214.092 157.285 213.768 158.256C216.575 151.994 215.495 143.141 213.012 146.596C214.524 140.01 215.387 122.304 210.745 125.435C213.552 118.525 216.035 93.8005 203.943 103.194C199.085 103.302 190.555 104.921 186.56 106.972C199.192 113.882 185.265 109.456 180.19 108.376C179.543 114.854 174.468 112.047 168.098 112.047C178.247 113.342 163.132 122.412 157.302 118.849C149.744 122.412 163.78 131.481 157.41 134.288C158.165 138.498 145.857 132.776 146.829 142.493C139.487 139.362 145.857 154.046 149.528 149.079C161.944 152.426 158.273 160.092 158.597 167.433C156.546 171.644 148.556 157.393 156.87 158.04C150.392 147.46 149.636 154.262 144.238 159.12C142.942 159.444 158.057 166.138 148.556 169.377C156.87 170.672 157.086 177.906 158.813 182.549C163.78 187.731 162.808 176.826 168.746 183.089C164.967 177.474 148.664 167.433 161.836 170.672C161.728 165.058 159.461 160.524 163.456 160.632C167.45 153.398 159.245 178.338 168.206 169.269C170.689 168.189 171.337 162.035 175.764 169.809C182.242 176.179 178.139 180.821 168.962 174.991C170.581 180.497 181.162 182.549 179.219 191.186C181.378 198.852 184.293 196.044 186.884 195.505C188.936 202.954 190.015 197.448 190.123 193.885C199.3 195.829 197.141 201.335 200.056 205.114C206.426 208.029 190.987 185.68 201.892 198.42C213.336 208.784 206.21 213.103 195.846 211.484C202.323 210.944 204.483 220.337 212.58 220.013C220.03 223.576 225.104 237.18 212.256 231.457C207.83 227.463 192.067 222.496 204.915 230.162C216.791 235.668 226.184 238.907 237.628 245.817C245.834 251.647 249.397 258.341 252.42 259.637C245.51 262.876 231.69 257.045 241.947 255.21C235.469 254.022 228.343 250.783 234.497 258.773C239.68 263.199 253.068 262.66 255.443 263.199C253.391 267.626 249.937 268.058 255.551 268.382C249.505 271.729 257.71 272.269 258.25 274.212ZM245.51 238.259C241.731 234.264 240.759 226.923 244.862 233.293C246.914 234.264 251.556 245.493 245.51 238.259ZM221.326 198.312C216.791 188.271 224.565 192.805 222.297 199.931L221.326 198.312ZM179.759 170.672C177.707 167.325 174.36 157.608 175.44 154.693C176.412 159.552 185.697 175.531 179.974 161.279C173.712 149.403 187.532 165.166 188.936 168.081C189.583 170.996 185.049 167.325 188.18 174.235C182.566 166.354 184.941 178.554 179.759 170.672ZM158.813 153.074C154.063 148.323 150.608 144.005 159.029 150.159C162.268 150.267 151.795 140.226 159.785 146.92C168.314 148.539 163.996 160.74 158.813 153.074ZM161.728 145.84C147.801 133.532 179.111 152.318 163.996 148.107L161.728 145.84ZM201.46 168.945C195.414 165.382 199.84 143.573 201.892 158.472C207.722 156.529 201.568 166.138 205.886 166.03C205.347 172.076 203.295 174.235 201.46 168.945ZM164.427 141.737C155.466 129.429 190.339 154.154 170.15 144.868C168.098 144.329 165.507 144.113 164.427 141.737ZM165.831 137.095C171.121 135.907 187.748 146.38 172.525 140.118C170.797 138.175 167.127 139.038 165.831 137.095ZM211.285 159.768C211.825 149.187 214.416 153.398 211.285 161.279V159.768ZM169.718 133.424C171.877 130.293 163.996 119.065 170.905 129.429C173.928 131.805 179.543 133.424 174.576 134.396C182.35 141.198 172.633 136.231 169.718 133.424ZM204.267 127.702C201.46 122.843 207.722 106.325 208.478 116.581C205.562 124.571 207.614 128.997 209.665 118.309C213.444 109.887 208.909 134.936 204.267 127.702ZM215.711 245.925C223.593 247.976 223.593 244.737 216.467 243.765C212.688 240.203 200.488 236.424 211.393 243.334C212.04 245.169 214.308 245.061 215.711 245.925ZM187.748 227.355C192.067 230.594 204.159 236.532 193.902 228.542C197.357 224.548 187.316 222.388 190.663 219.797C182.242 214.615 183.969 215.046 189.907 215.262C179.759 210.728 191.419 211.052 190.771 208.784C186.884 208.029 171.337 201.875 180.514 209.324C171.229 204.574 178.355 211.052 175.548 210.404C166.047 207.813 183.969 217.638 174.036 215.154C179.435 219.473 188.72 226.167 176.304 219.689C174.684 222.064 185.157 225.627 187.748 227.355ZM286.321 285.117C290.532 281.122 286.537 291.594 293.231 284.145C293.339 278.854 293.015 275.723 285.457 282.201C283.406 283.389 282.434 288.248 286.321 285.117ZM218.195 241.39C222.837 245.493 239.464 244.413 223.809 241.93C221.433 238.475 209.017 239.339 218.195 241.39ZM141.862 190.214C135.169 180.605 137.652 176.287 131.174 168.513C129.986 162.467 120.053 148.971 126.099 163.331C131.606 171.644 133.225 184.708 141.862 190.214ZM304.459 287.924C311.477 283.389 302.84 284.037 303.164 288.355L304.459 287.924ZM315.796 290.947C324.865 284.469 310.29 289.651 313.96 292.134L315.796 290.947ZM164.427 194.533C171.013 196.044 190.879 210.836 179.111 195.613C173.173 193.885 176.736 179.202 170.581 181.793C174.684 188.595 173.928 191.51 165.399 187.191C154.602 181.901 159.353 189.782 161.404 191.942C158.597 192.59 165.291 194.425 164.427 194.533ZM134.305 170.78C135.492 165.922 123.4 143.897 128.583 159.768C130.526 163.007 130.31 169.377 134.305 170.78ZM341.168 284.901C347.754 283.605 362.653 288.248 365.028 283.173C357.039 282.957 337.497 277.559 336.633 284.469L338.361 284.793L341.168 284.901ZM137.328 142.601C143.914 140.01 125.344 137.203 136.032 142.169L137.328 142.601ZM116.706 119.604C115.519 112.803 115.627 100.818 127.071 104.813C111.848 107.836 137.652 123.707 134.413 111.183C140.783 111.507 146.937 107.404 143.59 113.666C156.222 112.263 164.967 101.358 177.167 102.87C186.668 101.574 197.033 100.71 207.29 96.8235C215.711 96.1758 223.809 87.2146 219.166 81.8163C207.722 80.8446 195.738 82.2481 182.998 84.8393C168.962 87.7544 156.222 93.2607 142.078 95.6359C128.259 97.4714 144.885 100.71 140.891 101.466C133.657 103.949 149.528 105.677 139.919 108.268C134.089 107.188 127.935 105.137 130.418 98.8749C117.138 100.602 105.586 106.109 116.059 119.496L116.706 119.604ZM148.664 103.302C151.795 91.8571 165.291 112.695 153.739 104.813C152.335 103.841 150.068 102.978 148.664 103.302ZM154.926 97.9032C155.358 92.6129 167.99 100.71 156.978 99.8466L154.926 97.9032ZM164.643 93.3686C169.394 87.6464 191.419 89.6978 175.332 92.8288C171.013 89.5898 167.666 94.7722 164.643 93.3686ZM201.568 88.942C204.591 81.1685 213.12 85.811 202.971 87.3225C203.187 88.1863 202.647 91.4252 201.568 88.942ZM393.64 285.009C400.765 285.009 415.233 282.741 399.686 282.849C397.31 283.173 385.542 283.065 393.64 285.009ZM148.124 128.997C153.847 128.566 157.194 122.627 147.045 122.951C131.282 121.332 160.864 128.35 144.993 126.298C142.834 127.81 148.017 129.429 148.124 128.997ZM140.027 83.5437C150.284 80.0888 164.427 76.0941 169.286 85.2712C164.319 79.333 167.234 73.5029 171.985 82.1402C178.571 90.9934 181.918 78.1454 177.599 75.2303C182.458 81.2764 188.072 84.1915 180.838 75.6622C188.612 66.2691 165.183 76.8498 159.893 76.7419C157.302 77.8215 133.441 82.788 140.027 83.5437ZM146.073 71.9913C151.903 67.5647 166.371 74.5825 157.086 67.5647C156.222 66.701 136.788 72.8551 146.073 71.9913ZM167.45 72.8551C174.36 73.071 164.535 63.57 172.633 67.8886C171.337 63.462 163.132 62.7062 159.137 60.8708C156.87 64.8656 163.78 72.8551 167.45 72.8551ZM158.597 55.4725C169.718 53.961 155.79 50.722 156.33 55.3646L158.597 55.4725ZM142.186 42.7325C134.413 32.5837 156.87 44.46 148.88 33.7713C142.294 28.481 135.924 39.7095 142.186 42.7325ZM242.271 96.6076C245.834 90.2376 227.48 88.0783 239.896 94.3403C240.975 94.7722 240.759 97.0395 242.271 96.6076Z" fill="#F4F4F4"/>
<path d="M169.718 332.514C168.962 335.645 168.422 340.827 168.206 348.277C168.206 349.68 167.558 350.436 166.263 350.436C164.967 350.436 163.995 349.788 163.564 348.601C162.16 345.254 160.864 342.878 159.569 341.475C158.057 339.855 156.114 338.884 153.631 338.56C150.932 338.128 144.346 337.912 133.765 337.912C131.39 337.912 129.77 338.128 129.014 338.668C128.583 338.992 128.367 339.639 128.367 340.719V372.353C128.367 373.433 129.014 373.973 130.418 373.865C134.521 373.865 140.567 373.541 148.448 373.001C149.96 372.785 151.04 372.353 151.579 371.489C152.119 370.626 152.659 368.574 153.199 365.119C153.523 363.284 154.602 362.528 156.438 362.96C158.057 363.284 158.705 364.04 158.489 365.119C157.194 371.489 156.762 379.695 157.194 389.844C157.194 391.031 156.438 391.679 154.926 391.787C153.631 391.895 152.767 391.247 152.443 389.736C151.255 383.906 148.988 380.774 145.749 380.451C142.51 380.019 137.112 379.911 129.662 379.911C128.799 379.911 128.367 380.235 128.367 380.774V412.193C128.367 414.568 129.23 416.079 130.958 416.943C132.361 417.591 135.169 418.239 139.703 418.779C141.97 418.994 142.942 419.966 142.726 421.802C142.402 423.313 140.351 423.961 136.572 423.637C125.56 422.773 116.382 422.773 109.257 423.745C107.205 424.069 106.234 423.205 106.234 421.262C106.234 420.074 107.205 419.318 109.257 419.21C113.791 418.671 116.059 414.676 116.059 407.226V347.413C116.059 344.39 115.519 342.015 114.439 340.287C113.359 338.668 111.308 337.156 108.285 335.753C106.45 334.889 105.694 333.809 106.234 332.298C106.45 331.434 106.881 330.894 107.313 330.786C107.745 330.678 109.041 330.786 110.984 331.11C113.899 331.542 120.809 331.758 131.714 331.758C144.562 331.758 155.682 331.434 165.075 330.894C168.206 330.678 169.718 331.002 169.718 331.65C169.718 332.082 169.718 332.298 169.718 332.514Z" fill="#F4F4F4"/>
<path d="M214.956 421.154C214.956 422.989 213.876 423.853 211.824 423.637C205.347 422.989 197.465 423.097 187.964 423.961C186.021 424.177 184.833 424.069 184.401 423.853C183.969 423.529 183.753 422.773 183.753 421.586C183.753 420.506 185.049 419.534 187.532 418.779C190.123 418.023 191.311 415.756 191.311 411.869V348.601C191.311 344.822 190.771 342.015 189.691 340.287C188.612 338.56 186.668 337.156 183.969 336.185C182.566 335.645 181.81 334.997 181.81 334.025C181.81 332.622 182.89 331.542 184.941 330.894C188.072 329.922 191.419 328.303 194.766 326.144C197.573 324.416 199.3 323.66 200.056 323.66C201.784 323.66 202.647 324.848 202.647 327.223C202.647 327.007 202.539 329.383 202.323 334.241C202.216 338.884 202.108 343.418 202.216 347.845L202.539 410.249C202.539 413.056 203.187 415.108 204.591 416.403C205.994 417.699 208.37 418.563 211.824 418.995C213.984 418.995 214.956 419.858 214.956 421.154Z" fill="#F4F4F4"/>
<path d="M278.224 417.051C278.224 418.023 276.496 419.534 272.933 421.478C269.37 423.421 266.563 424.501 264.404 424.501C262.569 424.501 260.949 423.637 259.546 421.802C258.142 420.074 257.17 419.102 256.63 419.102C256.199 419.102 254.039 420.074 250.045 422.018C246.05 423.961 242.055 424.933 237.952 424.933C234.173 424.933 230.934 423.853 228.343 421.586C225.536 419.103 224.133 415.756 224.133 411.545C224.133 403.447 233.31 397.725 251.772 394.27C254.903 393.622 256.522 392.435 256.63 390.383L256.738 385.957C257.062 378.291 253.607 374.512 246.59 374.512C244.538 374.512 242.703 376.348 240.867 379.911C239.032 383.474 236.549 385.417 233.094 385.741C229.315 386.065 227.372 384.553 227.372 380.882C227.372 378.615 230.179 376.024 235.901 373.109C241.839 369.978 247.561 368.466 253.068 368.466C262.569 368.466 267.211 373.001 267.103 381.962L266.779 410.789C266.779 413.812 267.967 415.324 270.666 415.324C271.206 415.324 272.178 415.216 273.581 415C274.985 414.784 275.848 414.676 276.064 414.676C277.468 414.352 278.224 415.216 278.224 417.051ZM256.63 401.072C256.63 399.885 256.414 399.129 255.875 398.805C255.335 398.481 254.363 398.373 253.068 398.589C241.839 400.64 236.225 404.203 236.225 409.601C236.225 415 239.14 417.591 244.97 417.591C247.345 417.591 249.721 417.159 252.204 416.295C255.119 415.216 256.522 414.028 256.522 412.625L256.63 401.072Z" fill="#F4F4F4"/>
<path d="M330.155 408.954C330.155 413.92 328.212 417.807 324.433 420.722C320.654 423.637 315.472 425.041 308.886 425.041C304.459 425.041 300.141 424.609 295.714 423.637C291.935 422.773 289.776 422.018 289.128 421.37C288.804 420.722 288.588 417.483 288.588 411.761C288.588 409.278 289.128 407.982 290.316 407.874C291.396 407.766 292.367 408.306 293.231 409.709C296.686 415.864 302.408 418.887 310.182 418.887C316.768 418.887 320.007 416.619 320.007 412.085C320.007 410.033 319.251 408.414 317.739 407.01C316.12 405.499 312.989 403.663 308.238 401.612C301.436 398.589 296.902 395.89 294.635 393.622C292.151 391.247 290.964 387.9 290.964 383.798C290.964 378.723 292.907 374.836 296.794 372.029C300.357 369.33 305.215 367.927 311.153 367.927C314.932 367.927 318.387 368.25 321.518 368.79C324.865 369.438 326.593 370.086 326.808 371.058C327.132 373.649 327.996 377.428 329.076 382.394C329.184 383.042 328.536 383.474 327.132 383.906C325.621 384.229 324.541 384.014 324.109 383.15C320.438 377.104 315.796 374.189 310.182 374.189C303.812 374.189 300.573 376.24 300.573 380.343C300.573 382.61 301.436 384.445 303.164 385.741C304.675 386.929 308.346 388.764 313.96 391.247C319.899 393.838 324.001 396.106 326.161 398.157C328.752 400.964 330.155 404.527 330.155 408.954Z" fill="#F4F4F4"/>
<path d="M412.318 421.262C412.318 422.881 411.238 423.745 409.079 423.853C405.84 423.853 401.521 424.177 396.339 424.501C393.747 425.041 391.912 424.717 390.724 423.529C383.383 415.648 377.121 407.334 372.046 398.697C371.614 397.941 371.075 397.617 370.427 397.617C369.671 397.617 368.267 398.265 366.324 399.669C364.165 400.856 363.085 402.584 363.085 404.851C363.085 406.47 363.085 408.738 363.193 411.653C363.301 414.676 364.057 416.619 365.46 417.483C366.432 418.131 368.699 418.671 372.262 418.994C374.422 419.318 375.501 420.074 375.501 421.478C375.501 422.557 375.285 423.205 374.961 423.421C374.637 423.637 373.666 423.745 372.154 423.637C367.512 423.205 359.63 423.421 348.51 424.285C345.703 424.501 344.191 424.177 343.975 423.205C343.867 422.881 343.867 422.449 343.867 421.802C343.867 420.398 345.271 419.21 348.186 418.563C350.777 417.915 352.073 414.892 352.073 409.493V348.385C352.073 344.606 351.749 341.907 350.993 340.395C350.021 338.452 347.862 336.94 344.515 335.969C343.003 335.429 342.248 334.781 342.248 333.809C342.248 332.406 343.327 331.434 345.487 330.678C348.942 329.491 352.288 327.871 355.527 325.82C358.119 324.092 359.63 323.337 360.278 323.337C362.221 323.337 363.193 324.524 363.193 327.007C363.193 326.683 363.193 328.951 363.085 333.917C363.085 337.264 362.977 341.907 362.977 347.629L363.085 391.355C363.085 392.543 363.409 393.191 364.057 393.191C364.705 393.191 365.784 392.543 367.296 391.355C371.183 388.332 375.933 384.337 381.547 379.479C382.627 378.291 383.275 377.428 383.275 376.672C383.275 375.376 381.439 374.512 377.661 373.973C376.041 373.757 375.285 372.893 375.393 371.273C375.501 369.654 376.365 368.898 377.876 369.222C381.223 369.654 386.082 369.978 392.56 369.978C396.986 369.978 401.521 370.086 405.948 370.086C407.351 370.086 408.107 370.95 408.107 372.677C408.107 374.297 406.919 375.16 404.652 375.268C401.089 375.376 397.634 376.24 394.503 377.751C390.077 379.803 385.326 383.258 380.36 388.332C380.036 388.656 379.82 388.98 379.82 389.412C379.82 390.06 380.576 391.679 382.195 394.054C388.025 402.908 393.532 409.601 398.714 414.136C402.061 416.943 405.084 418.347 407.999 418.347C410.158 418.347 411.454 418.455 411.994 418.779C412.102 419.102 412.318 419.966 412.318 421.262Z" fill="#F4F4F4"/>
</svg>
