<svg width="780" height="781" viewBox="0 0 780 781" fill="none" xmlns="http://www.w3.org/2000/svg">
<path d="M737.09 42.9064C708.482 14.3039 674.044 0 633.749 0H146.249C105.967 0 71.5159 14.3039 42.9064 42.9064C14.3039 71.5142 0 105.965 0 146.249V633.756C0 674.042 14.3039 708.489 42.9064 737.092C71.5142 765.7 105.967 780.004 146.249 780.004H259.999C267.441 780.004 273.032 779.747 276.754 779.249C280.475 778.737 284.196 776.535 287.922 772.638C291.65 768.748 293.507 763.076 293.507 755.631C293.507 754.62 293.418 743.098 293.251 721.095C293.079 699.084 292.995 681.651 292.995 668.785L281.315 670.818C273.868 672.169 264.473 672.765 253.13 672.594C241.793 672.424 230.026 671.243 217.84 669.041C205.647 666.837 194.31 661.761 183.815 653.812C173.324 645.849 165.877 635.442 161.475 622.581L156.395 610.893C153.01 603.115 147.681 594.478 140.401 585.007C133.121 575.523 125.759 569.09 118.312 565.705L114.757 563.165C112.389 561.473 110.189 559.433 108.156 557.066C106.127 554.691 104.604 552.319 103.589 549.957C102.573 547.582 103.416 545.634 106.127 544.107C108.837 542.586 113.741 541.832 120.854 541.832L131.006 543.352C137.78 544.704 146.153 548.763 156.146 555.538C166.131 562.308 174.34 571.108 180.773 581.938C188.564 595.823 197.949 606.395 208.958 613.675C219.957 620.962 231.047 624.601 242.216 624.601C253.386 624.601 263.034 623.755 271.162 622.068C279.282 620.372 286.9 617.826 294.013 614.442C297.059 591.762 305.355 574.317 318.892 562.131C299.597 560.098 282.249 557.055 266.84 552.989C251.441 548.923 235.527 542.326 219.11 533.182C202.686 524.04 189.062 512.706 178.228 499.157C167.396 485.607 158.506 467.835 151.571 445.836C144.633 423.825 141.163 398.432 141.163 369.658C141.163 328.698 154.54 293.822 181.283 265.049C168.755 234.243 169.937 199.716 184.835 161.457C194.654 158.408 209.214 160.696 228.508 168.314C247.807 175.937 261.936 182.456 270.911 187.865C279.886 193.275 287.078 197.85 292.495 201.578C323.986 192.775 356.484 188.375 389.997 188.375C423.509 188.375 456.012 192.775 487.505 201.578L506.801 189.391C520.009 181.262 535.58 173.815 553.525 167.047C571.468 160.278 585.176 158.414 594.659 161.462C609.888 199.721 611.251 234.248 598.713 265.053C625.457 293.829 638.838 328.703 638.838 369.664C638.838 398.442 635.367 423.921 628.429 446.091C621.496 468.265 612.529 486.044 601.518 499.416C590.519 512.79 576.805 524.038 560.388 533.186C543.968 542.323 528.056 548.932 512.649 552.986C497.245 557.052 479.897 560.107 460.601 562.14C478.193 577.369 486.994 601.399 486.994 634.243V755.615C486.994 761.372 487.834 766.023 489.527 769.579C491.231 773.133 493.935 775.58 497.657 776.944C501.396 778.296 504.681 779.141 507.566 779.477C510.451 779.817 514.59 779.988 520.008 779.988H633.758C674.041 779.988 708.493 765.684 737.088 737.076C765.696 708.468 780 674.016 780 633.733V146.249C779.996 105.965 765.693 71.5088 737.09 42.9064Z" fill="white"/>
</svg>
