<svg width="263" height="247" viewBox="0 0 263 247" fill="none" xmlns="http://www.w3.org/2000/svg">
<g id="javascript">
<path id="Vector" d="M202.471 110.204C198.289 98.0749 181.141 98.0749 177.796 108.112C174.45 118.15 185.743 124.004 203.308 129.86C220.874 135.716 231.748 151.191 229.657 164.992C227.565 178.792 221.71 196.777 186.997 196.777C165.302 196.777 153.245 183.217 147.253 173.047L166.922 161.227C166.922 161.227 173.614 175.447 186.16 175.447C198.708 175.447 203.726 171.265 203.726 161.646C203.726 149.936 163.157 145.754 156.884 125.678C150.611 105.603 158.975 77.1638 188.251 79.2545C206.549 80.5616 216.841 89.5466 221.988 96.1016L202.471 110.204Z" fill="white"/>
<path id="Vector_2" d="M111.297 81.3467C111.297 81.3467 111.297 152.027 111.297 161.647C111.297 171.266 102.933 176.285 94.5682 174.612C86.2036 172.939 82.4395 162.902 82.4395 162.902L63.2012 175.867C63.2012 175.867 67.3832 195.105 93.7318 196.779C120.08 198.451 135.136 182.559 135.136 169.175C135.136 155.791 135.136 81.3467 135.136 81.3467H111.297Z" fill="white"/>
<path id="Vector_3" d="M16.3613 0V246.546C25.4349 246.546 16.3613 246.546 36.6309 246.546H262.908C262.908 238.988 239.502 243.104 249.445 233.091H29.8171V13.4558H249.445V233.091C234.356 242.075 249.445 242.075 262.908 246.546V0H16.3613Z" fill="white"/>
<path id="Vector_4" d="M24.5136 196.36C37.6795 196.36 48.3525 185.687 48.3525 172.521C48.3525 159.356 37.6795 148.683 24.5136 148.683C11.3478 148.683 0.674805 159.356 0.674805 172.521C0.674805 185.687 11.3478 196.36 24.5136 196.36Z" fill="white"/>
</g>
</svg>
