<svg width="844" height="1137" viewBox="0 0 844 1137" fill="none" xmlns="http://www.w3.org/2000/svg">
<g id="ligthbulb">
<g id="bulb">
<g id="level2">
<path id="Vector" d="M538.496 235.809L536.954 333.998L461.872 454.067L340.189 399.43C303.968 399.451 274.566 370.107 274.545 333.886C274.535 326.252 275.83 318.909 278.228 312.08C287.189 286.556 311.501 268.252 340.096 268.223L384.478 268.187L384.598 268.145L518.697 230.899L538.496 235.809Z" fill="#FFB655"/>
<path id="Vector_2" d="M730.039 355.303C721.079 380.826 696.759 399.149 668.171 399.159L622.001 399.198L621.951 399.222L461.875 454.064L538.499 235.807L668.053 267.964L668.071 267.971C704.3 267.931 733.695 297.294 733.716 333.515C733.724 341.148 732.43 348.492 730.039 355.303V355.303Z" fill="#FF7C48"/>
</g>
<g id="level3">
<path id="Vector_3" d="M573.235 136.857L579.874 211.743L527.171 268.066L386.267 268.18C385.702 268.171 385.157 268.169 384.599 268.141C349.137 267.315 320.646 238.312 320.623 202.636C320.612 195.002 321.908 187.66 324.299 180.848C333.259 155.325 357.579 137.002 386.167 136.992L573.235 136.857Z" fill="#FFDA44"/>
<path id="Vector_4" d="M776.109 224.076C767.148 249.599 742.835 267.904 714.24 267.933L668.071 267.971L668.052 267.964L527.171 268.066L573.235 136.858L714.139 136.743C750.367 136.704 779.769 166.047 779.783 202.288C779.794 209.921 778.5 217.265 776.109 224.076V224.076Z" fill="#FFB655"/>
</g>
<g id="level1">
<path id="Vector_5" d="M481.095 399.315L501.74 458.253L435.018 530.561L383.342 530.6C374.599 530.599 366.815 536.127 363.918 544.378L269.209 814.151L152.54 773.192L241.448 519.942C243.675 513.599 242.84 506.58 239.141 500.951C235.779 495.799 233.115 490.155 231.279 484.13C229.462 478.111 228.472 471.711 228.476 465.112C228.437 428.884 257.793 399.508 294.021 399.468L340.191 399.43L481.095 399.315Z" fill="#FFDA44"/>
<path id="Vector_6" d="M642.465 527.156C636.078 529.243 631.038 534.2 628.811 540.543L503.838 896.522L387.169 855.563L491.646 557.966C496.356 544.549 486.4 530.523 472.187 530.536L435.018 530.56L481.094 399.315L547.36 399.269L547.577 398.652L549.317 399.263L621.948 399.224L621.992 399.219C658.221 399.179 687.616 428.542 687.636 464.763C687.659 493.861 668.713 518.547 642.465 527.156V527.156Z" fill="#FFB655"/>
</g>
</g>
<g id="lower-part">
<path id="Vector_7" d="M312.751 878.829L308.764 972.011L253.628 1047.24L194.686 1026.54C163.736 1015.68 147.392 981.65 158.258 950.701L187.819 866.497C193.258 851.003 210.247 842.843 225.741 848.283L312.751 878.829Z" fill="#474747"/>
<path id="Vector_8" d="M417.977 947.298L388.415 1031.5C377.55 1062.45 343.521 1078.8 312.572 1067.93L253.629 1047.24L312.752 878.829L399.763 909.376C415.256 914.815 423.416 931.804 417.977 947.298Z" fill="#1E1E1E"/>
<path id="Vector_9" d="M392.568 651.477L375.172 818.771L293.043 934.965L123.719 875.521C77.2941 859.222 52.7779 808.18 69.0762 761.755L79.4227 732.284L134.934 720.245L99.1304 676.148L119.331 618.609C130.196 587.659 164.225 571.315 195.174 582.18L392.567 651.479L392.568 651.477Z" fill="#5F5F5F"/>
<path id="Vector_10" d="M606.191 854.159L550.68 866.198L586.483 910.295L576.136 939.768C559.838 986.192 508.795 1010.71 462.37 994.41L293.044 934.965L392.568 651.477L589.961 720.775C620.911 731.641 637.255 765.669 626.389 796.619L606.189 854.158L606.191 854.159Z" fill="#3F3F3F"/>
<path id="Vector_11" d="M352.66 765.152L358.399 798.694L332.952 821.289L79.4216 732.282L99.1299 676.145L352.66 765.152Z" fill="#F5A963"/>
<path id="Vector_12" d="M352.66 765.152L606.191 854.159L586.483 910.295L332.952 821.288L352.66 765.152Z" fill="#F07503"/>
</g>
</g>
</svg>
