<svg width="780" height="780" viewBox="0 0 780 780" fill="none" xmlns="http://www.w3.org/2000/svg">
<path d="M702 0H78C35.1 0 0 35.1 0 78V702C0 744.9 35.1 780 78 780H702C744.9 780 780 744.9 780 702V78C780 35.1 744.9 0 702 0ZM234 663H117V312H234V663ZM175.5 245.7C136.5 245.7 105.3 214.5 105.3 175.5C105.3 136.5 136.5 105.3 175.5 105.3C214.5 105.3 245.7 136.5 245.7 175.5C245.7 214.5 214.5 245.7 175.5 245.7ZM663 663H546V456.3C546 425.102 518.7 397.8 487.5 397.8C456.3 397.8 429 425.102 429 456.3V663H312V312H429V358.8C448.5 327.6 491.4 304.2 526.5 304.2C600.6 304.2 663 366.6 663 440.7V663Z" fill="white"/>
</svg>
