<svg width="1000" height="1000" viewBox="0 0 1000 1000" fill="none" xmlns="http://www.w3.org/2000/svg">
<g clip-path="url(#clip0)">
<path d="M23.084 976.916V22.084H977.916C643.225 173.391 464.229 260.477 440.929 283.344C417.629 306.21 278.347 537.401 23.084 976.916Z" fill="#FDA52B"/>
<path d="M977.916 976.916C712.543 802.496 578.934 692.002 577.091 645.434C575.247 598.867 708.855 416.753 977.916 99.0933V53.5713C659.883 197.976 488.263 281.942 463.056 305.47C437.849 328.998 304.524 552.813 63.0811 976.916H977.916Z" fill="#FDA52B"/>
<path d="M80.3701 22.0801H920.63C952.249 22.0801 977.92 47.7511 977.92 79.3701V919.63C977.92 951.249 952.249 976.92 920.63 976.92H80.3701C48.7511 976.92 23.0801 951.249 23.0801 919.63V79.3701C23.0801 47.7511 48.7511 22.0801 80.3701 22.0801Z" stroke="#FDA52B" stroke-width="26" stroke-miterlimit="2" stroke-linecap="square"/>
<path d="M70.07 -1H930.93C969.603 -1 1001 30.397 1001 69.07V929.93C1001 968.603 969.603 1000 930.93 1000H70.07C31.397 1000 0 968.603 0 929.93V69.07C0 30.397 31.397 -1 70.07 -1Z" stroke="#FDA52B" stroke-width="58" stroke-miterlimit="2" stroke-linecap="square"/>
</g>
<defs>
<clipPath id="clip0">
<rect width="1000" height="1000" rx="47" fill="white"/>
</clipPath>
</defs>
</svg>
