<svg width="512" height="490" viewBox="0 0 512 490" fill="none" xmlns="http://www.w3.org/2000/svg">
<g id="rlgProject">
<g id="computer">
<path id="Vector" d="M283.887 401.771L197.208 432.676L193.921 444.162C189.255 460.511 171.525 473.883 154.527 473.883V481.61H334.294L283.887 401.771Z" fill="#626262"/>
<path id="Vector_2" d="M318.079 444.163L305.964 401.771L256 370.865L206.037 401.771L197.208 432.676H283.887L287.174 444.163C291.84 460.512 309.57 473.883 326.568 473.883L342.021 481.61L357.473 473.883C340.475 473.883 322.746 460.512 318.079 444.163Z" fill="#444444"/>
<path id="Vector_3" d="M450.189 401.77H481.095C498.093 401.77 512 387.863 512 370.865V309.054L450.189 247.243V401.77Z" fill="#444444"/>
<path id="Vector_4" d="M0 370.865C0 387.863 13.9074 401.771 30.9054 401.771H450.189C467.187 401.771 481.095 387.863 481.095 370.865V185.433L0 309.054V370.865Z" fill="#626262"/>
<path id="Vector_5" d="M481.095 0H450.189L481.095 309.054H512V30.9054C512 13.9074 498.093 0 481.095 0Z" fill="black"/>
<path id="Vector_6" d="M481.095 30.9054C481.095 13.9074 467.187 0 450.189 0H30.9054C13.9074 0 0 13.9074 0 30.9054V309.054H481.095V278.149V170.5V30.9054Z" fill="#121212"/>
<path id="Vector_7" d="M256 370.865C264.534 370.865 271.452 363.947 271.452 355.413C271.452 346.878 264.534 339.96 256 339.96C247.465 339.96 240.547 346.878 240.547 355.413C240.547 363.947 247.465 370.865 256 370.865Z" fill="white"/>
<path id="Vector_8" d="M415.678 489.336H96.3221C92.0551 489.336 88.5957 485.877 88.5957 481.609C88.5957 477.341 92.0551 473.883 96.3221 473.883H415.678C419.945 473.883 423.405 477.341 423.405 481.609C423.405 485.877 419.945 489.336 415.678 489.336Z" fill="#444444"/>
</g>
<g id="content">
<path id="Vector_9" d="M481 31.0226L31.0973 31C31.0697 31.0123 31.0464 277.995 31 278C31 278 480.978 277.979 480.989 277.979C480.994 277.979 480.954 31.0268 481 31.0226Z" fill="#A25382"/>
<rect id="Rectangle 38" x="62.1768" y="126.531" width="180.12" height="28.1772" rx="3" fill="#F1F1F1"/>
<rect id="Rectangle 39" x="62.1768" y="169.469" width="129.348" height="28.1772" rx="3" fill="#F1F1F1"/>
<rect id="Rectangle 41" x="62.1768" y="239.24" width="45.9367" height="14.7595" rx="7.37975" fill="#F1F1F1"/>
<rect id="Rectangle 42" x="117.076" y="239.74" width="37.6835" height="13.7595" rx="6.87975" stroke="#F1F1F1"/>
<rect id="Rectangle 40" x="62.1768" y="212.405" width="108.797" height="12.0759" rx="3" fill="#F1F1F1" fill-opacity="0.52"/>
<rect id="Rectangle 34" x="436.924" y="47.3662" width="37.4747" height="12.0759" rx="3" fill="#F1F1F1"/>
<rect id="Rectangle 35" x="392.196" y="47.3662" width="37.4747" height="12.0759" rx="3" fill="#F1F1F1"/>
<rect id="Rectangle 36" x="347.469" y="47.3662" width="37.4747" height="12.0759" rx="3" fill="#F1F1F1"/>
<rect id="Rectangle 37" x="302.74" y="47.3662" width="37.4747" height="12.0759" rx="3" fill="#F1F1F1"/>
<g id="logo">
<rect id="Rectangle 33" x="62.1768" y="47.3662" width="51.981" height="12.0759" rx="3" fill="#F1F1F1"/>
<g id="logo_inverseTransparent">
<g id="Group 5">
<g id="Vector 1">
<path d="M38 64.6077V43C38 42.4477 38.4477 42 39 42H45.3558C45.908 42 46.3558 42.4477 46.3558 43V64.6077C46.3558 65.16 45.908 65.6077 45.3558 65.6077H39C38.4477 65.6077 38 65.16 38 64.6077Z" fill="#F1F1F1"/>
<path d="M47.0732 51.6328V43C47.0732 42.4477 47.5209 42 48.0732 42H55.1041C55.6564 42 56.1041 42.4477 56.1041 43V51.6328C56.1041 52.1851 55.6564 52.6328 55.1041 52.6328H48.0732C47.5209 52.6328 47.0732 52.1851 47.0732 51.6328Z" fill="#F1F1F1"/>
<path d="M54.9152 64.0106L48.8753 55.8969C48.3004 55.1245 47.0732 55.5312 47.0732 56.494V64.6077C47.0732 65.16 47.5209 65.6077 48.0732 65.6077H54.1131C54.9355 65.6077 55.4063 64.6702 54.9152 64.0106Z" fill="#F1F1F1"/>
</g>
</g>
</g>
</g>
<g id="webpage">
<rect id="Rectangle 9" x="284.608" y="125.189" width="181.345" height="111.574" rx="6" fill="#3D3D3D"/>
<ellipse id="Ellipse 4" cx="290.09" cy="131.276" rx="1.62459" ry="1.80322" fill="#E1E1E1"/>
<ellipse id="Ellipse 5" cx="299.837" cy="131.276" rx="1.62459" ry="1.80322" fill="#E1E1E1"/>
<ellipse id="Ellipse 6" cx="294.964" cy="131.276" rx="1.62459" ry="1.80322" fill="#E1E1E1"/>
<path id="Vector 3" d="M465.953 137.136H284.607V196.739C323.787 177.717 375.077 196.739 375.077 196.739C439.655 217.379 465.953 181.099 465.953 181.099V137.136Z" fill="#7C7C7C"/>
<path id="Rectangle 12" d="M293.34 220.843C293.34 215.32 297.817 210.843 303.34 210.843H385.283C390.806 210.843 395.283 215.32 395.283 220.843V236.764H293.34V220.843Z" fill="#DBDBDB"/>
<path id="Rectangle 13" d="M402.797 220.843C402.797 215.32 407.274 210.843 412.797 210.843H447.018C452.541 210.843 457.018 215.32 457.018 220.843V236.764H402.797V220.843Z" fill="#5F5F5F"/>
</g>
</g>
</g>
</svg>
