<svg width="773" height="580" viewBox="0 0 773 580" fill="none" xmlns="http://www.w3.org/2000/svg">
<path d="M665.377 332.834C638.353 332.987 614.951 339.48 595.324 349.148C588.077 334.8 580.831 322.262 579.624 312.898C578.265 302.023 576.605 295.376 578.265 282.388C579.925 269.397 587.473 250.97 587.473 249.459C587.321 248.1 585.811 241.454 570.262 241.303C554.713 241.152 541.275 244.324 539.765 248.402C538.255 252.48 535.236 261.845 533.273 271.512C530.555 285.709 502.172 336.006 486.017 362.439C480.733 352.168 476.204 343.105 475.296 335.854C473.939 324.98 472.277 318.333 473.939 305.345C475.6 292.354 483.149 273.928 483.149 272.418C482.998 271.058 481.488 264.413 465.939 264.262C450.387 264.111 436.951 267.282 435.442 271.361C433.932 275.439 432.271 285.105 428.95 294.47C425.778 303.834 388.033 387.814 378.22 409.715C373.238 420.892 368.861 429.803 365.689 435.845C362.518 441.887 365.538 436.298 365.236 436.902C362.518 442.038 361.009 444.907 361.009 444.907V445.06C358.895 448.836 356.63 452.459 355.572 452.459C354.817 452.459 353.307 442.34 355.874 428.445C361.46 399.293 375.048 353.831 374.898 352.169C374.898 351.414 377.464 343.407 366.14 339.331C355.119 335.253 351.195 342.05 350.288 342.05C349.382 342.05 348.627 344.466 348.627 344.466C348.627 344.466 360.856 293.265 325.226 293.265C302.881 293.265 272.082 317.582 256.833 339.785C247.171 345.072 226.638 356.247 204.897 368.181C196.594 372.712 187.988 377.546 179.835 381.926L178.176 380.111C134.997 334.043 55.1301 301.418 58.4516 239.491C59.6594 216.986 67.5102 157.626 211.845 85.7303C330.06 26.8241 424.722 42.9855 441.177 78.9335C464.579 130.288 390.6 225.746 267.707 239.491C220.904 244.777 196.293 226.652 190.105 219.855C183.613 212.756 182.707 212.454 180.291 213.814C176.366 215.928 178.781 222.272 180.291 226.048C183.915 235.564 199.012 252.48 224.678 260.939C247.172 268.34 302.129 272.418 368.559 246.741C442.99 217.892 501.116 137.84 484.056 70.9282C466.694 2.80846 353.763 -19.5457 247.023 18.3657C183.46 41.022 114.615 76.3657 65.0946 122.736C6.21369 177.715 -3.14686 225.746 0.778533 245.683C14.5189 316.824 112.501 363.194 151.755 397.48C149.792 398.536 147.981 399.593 146.32 400.501C126.693 410.166 51.9596 449.288 33.2385 490.672C12.1018 537.494 36.56 571.178 52.8655 575.709C103.292 589.756 154.926 564.532 182.856 522.996C210.634 481.459 207.314 427.538 194.481 402.918L194.027 402.012L209.427 392.949C219.393 387.058 229.206 381.621 237.81 376.937C232.981 390.078 229.507 405.635 227.696 428.291C225.583 454.876 236.453 489.312 250.796 502.906C257.137 508.795 264.686 508.948 269.366 508.948C285.973 508.948 293.522 495.201 301.826 478.739C312.092 458.651 321.151 435.39 321.151 435.39C321.151 435.39 309.828 498.375 340.778 498.375C352.101 498.375 363.424 483.724 368.557 476.172V476.323C368.557 476.323 368.859 475.869 369.463 474.812C370.097 473.875 370.701 472.919 371.275 471.944V471.642C375.804 463.788 385.92 445.814 401.017 416.058C420.492 377.694 439.214 329.663 439.214 329.663C439.214 329.663 441.026 341.444 446.612 360.777C449.932 372.258 457.179 384.793 462.765 397.027C458.236 403.371 455.518 406.997 455.518 406.997L455.669 407.149C452.048 411.982 447.97 417.119 443.744 422.253C428.344 440.68 409.925 461.676 407.509 467.718C404.641 474.815 405.245 480.102 410.831 484.332C414.907 487.353 422.154 487.956 429.854 487.353C443.744 486.445 453.406 482.973 458.238 480.857C465.786 478.138 474.392 474.06 482.696 468.018C497.793 456.843 507.003 440.983 506.097 419.838C505.644 408.207 501.87 396.728 497.19 385.853C498.548 383.89 499.909 381.925 501.266 379.811C525.12 344.919 543.539 306.556 543.539 306.556C543.539 306.556 545.351 318.338 550.937 337.671C553.804 347.489 559.543 358.214 564.676 368.787C542.331 387.063 528.291 408.209 523.459 422.105C514.552 447.782 521.497 459.412 534.632 462.131C540.518 463.339 548.974 460.62 555.314 457.902C563.165 455.334 572.676 450.952 581.434 444.459C596.532 433.282 611.026 417.724 610.271 396.73C609.818 387.063 607.251 377.547 603.779 368.485C622.802 360.631 647.41 356.099 678.663 359.875C745.848 367.73 759.134 409.719 756.569 427.24C754.002 444.762 739.961 454.428 735.28 457.448C730.599 460.318 729.09 461.377 729.542 463.49C730.146 466.663 732.26 466.511 736.336 465.908C741.923 465.001 771.665 451.559 772.873 419.238C774.684 377.695 735.28 332.383 665.377 332.834V332.834ZM147.226 507.59C125.032 531.907 93.7801 541.121 80.4942 533.267C66.1514 524.959 71.736 489.163 99.0643 463.334C115.672 447.626 137.261 433.126 151.453 424.215C154.624 422.251 159.455 419.383 165.192 415.907C166.098 415.305 166.702 415.001 166.702 415.001C167.759 414.397 168.966 413.642 170.174 412.887C180.29 449.741 170.627 482.064 147.226 507.59V507.59ZM309.526 397.178C301.826 416.058 285.52 464.543 275.707 461.824C267.251 459.558 262.119 422.855 274.045 386.605C280.084 368.328 292.917 346.579 300.466 338.119C312.696 324.526 325.981 319.994 329.304 325.583C333.229 332.834 314.357 385.397 309.526 397.178ZM443.442 461.22C440.12 462.883 437.101 464.09 435.742 463.185C434.685 462.581 437.099 460.315 437.099 460.315C437.099 460.315 453.858 442.341 460.501 434.034C464.275 429.202 468.804 423.614 473.636 417.268V419.081C473.637 440.829 452.802 455.329 443.442 461.22ZM546.708 437.657C544.293 435.845 544.596 430.256 552.747 412.736C555.919 405.788 563.165 394.157 575.696 383.131C577.206 387.663 578.113 392.041 577.96 396.121C577.811 423.308 558.486 433.428 546.708 437.657Z" fill="#CF649A"/>
</svg>
