<svg width="502" height="502" viewBox="0 0 502 502" fill="none" xmlns="http://www.w3.org/2000/svg">
<path d="M0 303.904H16.5226V238.659L42.1003 295.537C45.1186 302.421 49.2499 304.858 57.3517 304.858C65.4547 304.858 69.4264 302.422 72.4461 295.537L98.0238 238.659V303.903H114.546V238.766C114.546 232.41 112.004 229.339 106.762 227.751C94.2116 223.832 85.7908 227.221 81.9773 235.695L56.8756 291.829L32.5691 235.695C28.9151 227.221 20.3361 223.832 7.78524 227.751C2.54233 229.339 0 232.411 0 238.765V303.904V303.904ZM128.285 250.798H144.802V286.743C144.648 288.697 145.429 293.279 154.48 293.421C159.098 293.494 190.119 293.421 190.408 293.421V250.623H206.964C207.04 250.623 206.948 308.989 206.949 309.237C207.039 323.632 189.088 326.758 180.814 327H128.642V315.884C128.735 315.884 180.776 315.895 180.907 315.882C191.541 314.759 190.285 309.474 190.284 307.695V303.361H155.164C138.825 303.211 128.421 296.079 128.292 287.877C128.28 287.117 128.645 251.157 128.283 250.797L128.285 250.798Z" fill="#F4F4F4"/>
<path d="M219.698 303.904H267.199C272.76 303.904 278.161 302.74 282.452 300.726C289.6 297.444 293.096 292.996 293.096 287.169V275.096C293.096 270.329 289.124 265.88 281.339 262.916C277.208 261.325 272.124 260.479 267.199 260.479H247.18C240.51 260.479 237.332 258.466 236.538 254.019C236.379 253.489 236.379 253.064 236.379 252.535V245.016C236.379 244.592 236.379 244.167 236.538 243.638C237.332 240.249 239.081 239.295 244.958 238.766C245.434 238.766 246.069 238.659 246.547 238.659H293.732V227.646H247.341C240.668 227.646 237.173 228.069 233.996 229.021C224.146 232.094 219.856 236.966 219.856 245.438V255.078C219.856 262.492 228.277 268.847 242.415 270.329C244.006 270.434 245.593 270.54 247.181 270.54H264.339C264.976 270.54 265.612 270.54 266.088 270.647C271.331 271.071 273.554 272.023 275.144 273.93C276.096 274.882 276.414 275.837 276.414 276.896V286.532C276.414 287.699 275.62 289.183 274.033 290.453C272.602 291.724 270.219 292.572 267.041 292.784C266.406 292.784 265.929 292.89 265.294 292.89H219.697V303.903L219.698 303.904ZM396.169 284.734C396.169 296.066 404.588 302.422 421.588 303.693C423.176 303.799 424.766 303.904 426.354 303.904H469.408V292.89H426.036C416.345 292.89 412.691 290.453 412.691 284.628V227.645H396.169V284.734ZM303.641 285.311V246.04C303.641 236.064 310.647 230.013 324.496 228.103C325.972 227.892 327.462 227.786 328.954 227.785H360.316C361.908 227.785 363.342 227.892 364.934 228.103C378.784 230.013 385.788 236.064 385.788 246.04V285.31C385.788 293.403 382.814 297.736 375.957 300.559L392.233 315.249H373.048L359.881 303.364L346.625 304.204H328.954C325.929 304.204 322.746 303.778 319.243 302.823C308.736 299.958 303.641 294.439 303.641 285.31V285.311ZM321.473 284.357C321.473 284.888 321.633 285.418 321.793 286.055C322.747 290.619 327.046 293.166 333.573 293.166H348.584L334.795 280.718H353.978L366.005 291.575C368.221 290.394 369.68 288.587 370.189 286.267C370.348 285.737 370.348 285.206 370.348 284.676V246.998C370.348 246.573 370.348 246.042 370.189 245.51C369.234 241.265 364.935 238.825 358.568 238.825H333.573C326.251 238.825 321.475 242.009 321.475 246.998V284.357H321.473Z" fill="#F4F4F4"/>
<path d="M483.943 209.372C473.788 209.097 466.03 210.041 459.397 212.838C457.513 213.633 454.507 213.654 454.2 216.016C455.235 217.102 455.396 218.723 456.22 220.059C457.802 222.622 460.477 226.056 462.862 227.857C465.469 229.825 468.155 231.929 470.95 233.634C475.92 236.664 481.469 238.394 486.255 241.431C489.076 243.22 491.878 245.474 494.63 247.494C495.99 248.493 496.905 250.046 498.672 250.672V250.383C497.743 249.2 497.504 247.574 496.651 246.339L492.897 242.585C489.226 237.712 484.566 233.433 479.613 229.878C475.663 227.042 466.821 223.214 465.173 218.615L464.883 218.326C467.684 218.01 470.964 216.997 473.549 216.306C477.891 215.14 481.77 215.441 486.255 214.283C488.275 213.705 490.298 213.127 492.32 212.55V211.395C490.053 209.069 488.437 205.991 485.965 203.886C479.499 198.379 472.441 192.878 465.173 188.291C461.142 185.746 456.16 184.093 451.889 181.937C450.452 181.212 447.926 180.835 446.978 179.626C444.734 176.766 443.512 173.139 441.78 169.807C438.156 162.827 434.596 155.202 431.384 147.857C429.193 142.85 427.762 137.912 425.031 133.418C411.918 111.858 397.803 98.8465 375.937 86.0551C371.284 83.3352 365.682 82.2596 359.763 80.8572L350.233 80.2782C348.294 79.4677 346.277 77.0964 344.456 75.9462C337.212 71.3711 318.634 61.4166 313.269 74.5026C309.881 82.7626 318.332 90.8232 321.354 95.0085C323.475 97.9446 326.191 101.236 327.707 104.538C328.704 106.709 328.877 108.885 329.73 111.181C331.829 116.838 333.654 122.992 336.371 128.22C337.744 130.865 339.257 133.652 340.993 136.016C342.057 137.469 343.88 138.109 344.168 140.35C342.385 142.846 342.283 146.718 341.281 149.88C336.767 164.112 338.469 181.8 345.035 192.334C347.05 195.567 351.795 202.502 358.319 199.842C364.027 197.517 362.752 190.314 364.384 183.959C364.754 182.518 364.526 181.458 365.25 180.493V180.783L370.448 191.178C374.295 197.373 381.124 203.849 386.91 208.218C389.91 210.484 392.273 214.402 396.152 215.727V215.437H395.862C395.111 214.266 393.935 213.78 392.975 212.838C390.715 210.623 388.202 207.868 386.332 205.33C381.07 198.185 376.419 190.366 372.182 182.226C370.159 178.341 368.4 174.051 366.694 170.096C366.036 168.571 366.044 166.266 364.674 165.475C362.806 168.373 360.054 170.717 358.609 174.14C356.298 179.61 355.999 186.282 355.144 193.2C354.637 193.381 354.861 193.256 354.565 193.488C350.543 192.518 349.129 188.377 347.635 184.825C343.853 175.842 343.151 161.377 346.477 151.036C347.339 148.36 351.23 139.933 349.655 137.463C348.904 134.996 346.423 133.569 345.035 131.686C343.317 129.356 341.602 126.288 340.414 123.598C337.319 116.594 335.874 108.731 332.617 101.651C331.06 98.2662 328.426 94.8413 326.263 91.8319C323.869 88.4996 321.188 86.0422 319.333 82.0113C318.673 80.5793 317.776 78.2866 318.754 76.8134C319.066 75.8201 319.505 75.4046 320.488 75.0803C322.163 73.7899 326.828 75.5101 328.573 76.2357C333.205 78.1592 337.07 79.9913 340.993 82.589C342.876 83.8382 344.78 86.2532 347.056 86.9222H349.655C353.721 87.8563 358.275 87.2117 362.074 88.3658C368.787 90.4064 374.803 93.5791 380.266 97.0298C396.914 107.54 410.523 122.502 419.833 140.35C421.331 143.223 421.979 145.966 423.298 149.014C425.96 155.161 429.313 161.486 431.961 167.497C434.603 173.493 437.179 179.546 440.914 184.537C442.879 187.16 450.463 188.568 453.909 190.023C456.326 191.045 460.285 192.109 462.574 193.488C466.946 196.125 471.181 199.265 475.282 202.153C477.331 203.597 483.631 206.763 483.945 209.372H483.943Z" fill="#F4F4F4"/>
<path fill-rule="evenodd" clip-rule="evenodd" d="M354.854 99.3405C352.737 99.3019 351.239 99.5721 349.655 99.9169V100.206H349.945C350.955 102.282 352.737 103.617 353.987 105.404C354.949 107.426 355.912 109.448 356.876 111.469L357.164 111.181C358.952 109.92 359.772 107.904 359.763 104.828C359.046 104.074 358.939 103.127 358.319 102.228C357.493 101.029 355.895 100.349 354.854 99.3405V99.3405Z" fill="#F4F4F4"/>
<path fill-rule="evenodd" clip-rule="evenodd" d="M477.163 292.576C477.163 299.85 482.911 304.752 489.341 304.752C495.77 304.752 501.517 299.85 501.517 292.576C501.517 285.302 495.77 280.401 489.341 280.401C482.911 280.401 477.164 285.302 477.164 292.576H477.163ZM498.789 292.576C498.789 298.095 494.569 302.22 489.341 302.22C484.049 302.22 479.892 298.095 479.892 292.576C479.892 287.056 484.047 282.931 489.341 282.931C494.569 282.931 498.789 287.056 498.789 292.576ZM492.621 299.523H495.348L491.355 293.421C493.498 293.193 495.12 292.154 495.12 289.622C495.12 286.796 493.335 285.628 489.894 285.628H484.471V299.523H486.809V293.517H488.983L492.621 299.525V299.523ZM486.809 291.57V287.576H489.503C490.9 287.576 492.588 287.836 492.588 289.459C492.588 291.406 491.062 291.57 489.307 291.57H486.809V291.57Z" fill="#F4F4F4"/>
</svg>
