<svg width="524" height="524" viewBox="0 0 524 524" fill="none" xmlns="http://www.w3.org/2000/svg">
<path d="M205.443 251.318C198.594 251.318 193.035 253.353 188.767 257.397C184.499 261.442 182.315 266.777 182.315 273.279C182.315 276.654 182.861 279.731 183.903 282.56C184.946 285.389 186.633 288.019 188.817 290.376C191 292.734 195.467 295.96 202.093 300.302C210.207 305.265 215.493 309.285 218.073 312.412C220.47 315.142 221.824 318.632 221.895 322.264C221.895 326.854 220.406 330.502 217.279 333.257C214.153 336.011 210.009 337.376 204.872 337.376C199.413 337.376 194.946 335.465 190.628 331.668C186.31 327.872 184.499 322.81 184.424 316.482H181.893V339.411H184.424C185.169 337.227 186.261 336.135 187.65 336.135C188.32 336.135 189.884 336.631 192.613 337.475C198.569 339.609 203.482 340.627 207.353 340.627C214.004 340.627 219.662 338.294 224.401 333.579C226.685 331.367 228.493 328.712 229.714 325.776C230.934 322.84 231.541 319.686 231.498 316.507C231.498 311.345 229.935 306.754 226.833 302.759C223.731 298.764 217.751 294.074 208.768 288.739C201.075 284.098 196.038 280.302 193.73 277.373C191.471 274.625 190.235 271.179 190.231 267.621C190.167 265.853 190.515 264.094 191.247 262.484C191.979 260.873 193.075 259.455 194.45 258.34C197.254 256.033 200.901 254.866 205.492 254.866C210.654 254.866 214.922 256.405 218.346 259.482C221.885 262.86 224.012 267.453 224.302 272.336H226.833V252.484H224.476C224.178 253.477 223.93 254.147 223.682 254.469C223.433 254.792 222.987 254.916 222.317 254.916C221.498 254.916 220.034 254.569 217.974 253.923C213.507 252.434 209.438 251.69 205.691 251.69L205.443 251.318ZM288.076 251.318C279.738 251.318 272.195 253.303 265.321 257.224C258.523 261.1 252.898 266.742 249.042 273.552C245.105 280.28 243.04 287.94 243.062 295.736C242.975 306.098 246.682 316.134 253.484 323.951C260.432 332.19 268.82 337.351 278.498 339.336C280.731 340.503 283.883 343.48 288.027 348.27C292.741 353.729 296.662 357.65 299.938 359.982C303.12 362.274 306.658 364.026 310.41 365.169C314.324 366.325 318.388 366.894 322.47 366.856C327.73 366.856 332.396 365.938 336.614 364.052L335.671 361.744C333.264 362.613 330.708 363.035 327.979 363.035C324.306 363.035 320.609 361.794 316.886 359.387C313.164 356.98 308.524 352.314 302.99 345.49L297.58 339.336C308.201 337.277 316.936 332.14 323.71 323.901C330.376 316.049 333.996 306.061 333.909 295.761C334.023 289.868 332.9 284.017 330.613 278.585C328.326 273.152 324.927 268.26 320.633 264.222C311.799 255.66 300.955 251.318 288.076 251.318V251.318ZM339.691 251.318L339.815 254.047C345.374 254.047 348.501 255.685 349.171 258.961C349.419 260.127 349.543 262.311 349.568 265.413L349.518 325.266C349.468 329.733 348.823 332.587 347.607 333.827C346.391 335.068 344.307 335.813 341.304 336.135L341.18 338.865H396.517L397.932 325.291H395.401C394.656 329.013 393.018 331.644 390.388 333.133C387.758 334.621 383.068 335.366 376.318 335.366H371.107C365.027 335.366 361.528 333.182 360.585 328.765C360.398 327.834 360.307 326.886 360.312 325.936L360.561 265.388C360.561 260.921 361.131 257.943 362.298 256.454C363.464 254.966 365.598 254.172 368.675 253.973L368.551 251.243L339.691 251.318ZM288.97 254.593C293.421 254.497 297.831 255.461 301.836 257.407C305.84 259.353 309.324 262.225 311.998 265.785C317.953 273.229 320.882 283.503 320.882 296.481C320.882 308.789 317.904 318.616 311.948 326.011C309.129 329.603 305.503 332.479 301.364 334.406C297.225 336.334 292.689 337.257 288.126 337.103C283.633 337.208 279.182 336.222 275.154 334.23C271.126 332.237 267.641 329.298 264.998 325.663C259.092 318.02 256.164 308.094 256.164 295.885C256.164 283.354 259.142 273.552 265.098 265.81C271.053 258.067 278.994 254.593 289.019 254.593H288.97ZM416.27 267.497C414.93 267.497 413.888 267.944 413.119 268.862C412.731 269.322 412.461 269.87 412.331 270.458C412.201 271.045 412.216 271.656 412.374 272.237C412.678 273.599 413.451 274.811 414.558 275.661C415.724 276.654 416.99 277.15 418.33 277.15C419.67 277.15 420.637 276.654 421.357 275.661C422.077 274.669 422.3 273.552 422.027 272.237C421.754 270.922 421.035 269.755 419.943 268.862C418.851 267.969 417.61 267.497 416.295 267.497H416.27ZM452.748 276.679C450.465 285.513 445.477 290.277 437.859 291.071L437.958 293.602H446.892L446.768 323.43L447.264 333.678C448.132 337.823 450.862 339.932 455.378 339.932C461.93 339.932 468.778 335.961 475.975 327.946L473.791 326.085C468.58 331.346 464.014 333.976 459.994 333.976C457.512 333.976 456.024 332.562 455.428 329.758C455.263 328.966 455.188 328.159 455.205 327.351L455.304 293.503H468.952L468.828 289.458H455.378V276.604L452.748 276.679ZM505.405 287.945C497.787 287.945 491.583 291.667 486.794 298.987C482.005 306.308 480.516 314.497 482.402 323.48C483.188 328.19 485.551 332.495 489.102 335.688C492.477 338.567 496.794 339.981 501.881 339.981C506.646 339.981 513.296 338.741 516.076 336.334C518.855 333.927 521.46 329.956 523.843 324.571L521.932 322.586C518.135 329.584 510.467 333.108 504.661 333.108C496.72 333.108 491.831 328.74 489.772 320.055C489.531 318.883 489.357 317.698 489.251 316.507C498.68 315.018 505.877 312.362 510.716 308.516C515.555 304.67 520.393 300.575 519.5 296.307C519.011 293.863 517.62 291.693 515.604 290.228C513.545 288.739 508.16 287.92 505.182 287.92L505.405 287.945ZM422.126 288.267L405.699 292.039V294.967L411.406 294.223C414.136 294.223 415.774 295.464 416.295 297.945C416.501 299.083 416.609 300.237 416.617 301.394L416.444 328.244C416.394 331.966 415.997 334.125 415.153 334.77C414.31 335.416 412.101 335.763 408.553 335.763L408.453 338.294H434.509L434.459 335.763C430.836 335.763 428.504 335.515 427.462 334.919C426.419 334.324 425.725 333.356 425.427 331.817C425.179 330.701 425.079 328.79 425.079 326.11L425.179 288.218H422.201L422.126 288.267ZM501.236 293.23C502.824 293.23 504.363 293.851 505.902 295.042C507.44 296.233 508.383 297.573 508.631 299.012C510.12 306.159 503.792 311.072 489.524 313.827C489.127 308.864 490.02 303.901 492.328 299.632C494.636 295.364 497.589 293.181 501.212 293.181L501.236 293.23Z" fill="#F4F4F4"/>
<path d="M158.518 159.006H17.2215C7.74225 159.006 0 166.749 0 176.228V332.066C0 341.545 7.74225 349.287 17.2215 349.287H110.277C109.21 302.982 125.042 213.128 158.518 159.056V159.006Z" fill="#F4F4F4"/>
<path d="M153.381 164.019H17.2215C15.6206 164.016 14.0347 164.329 12.555 164.94C11.0753 165.551 9.73082 166.448 8.59876 167.58C7.46671 168.712 6.56936 170.057 5.95821 171.537C5.34706 173.016 5.03414 174.602 5.03741 176.203V320.626C35.8823 308.789 82.1373 298.59 114.149 299.037C120.6 265.413 139.46 199.777 153.356 163.994L153.381 164.019Z" fill="#F4F4F4"/>
<mask id="path-4-inside-1" fill="white">
<path d="M191.472 153.894C181.546 145.259 170.081 148.733 158.518 158.982L153.381 163.994C133.603 185.012 115.24 223.872 109.533 253.551C112.015 258.067 113.503 263.8 114.645 268.44L115.389 271.517L116.134 274.991C116.134 274.991 115.96 274.321 115.24 272.212L114.744 270.847C114.651 270.596 114.552 270.348 114.446 270.103C113.156 267.125 109.583 260.772 107.994 258.018C106.75 261.668 105.575 265.341 104.471 269.036C109.012 277.324 111.766 291.543 111.766 291.543C111.766 291.543 111.518 290.625 110.377 287.399C109.384 284.545 104.322 275.736 103.131 273.651C101.096 281.195 100.277 286.307 101.022 287.548C102.436 289.955 103.801 294.099 104.992 298.665C106.849 306.219 108.365 313.853 109.533 321.544L109.707 323.653C109.377 332.185 109.567 340.729 110.277 349.237C111.171 359.982 112.833 369.213 114.992 374.176L116.432 373.382C113.305 363.655 112.015 350.875 112.585 336.16C113.429 313.653 118.615 286.53 128.169 258.241C144.299 215.56 166.756 181.315 187.278 164.937C168.568 181.811 143.256 236.503 135.663 256.752C127.176 279.433 121.171 300.675 117.548 321.097C123.802 301.99 144.026 293.801 144.026 293.801C144.026 293.801 153.952 281.567 165.515 264.097L143.356 270.003L136.209 273.18C136.209 273.18 154.448 262.063 170.106 257.05C191.621 223.153 215.071 174.987 191.447 153.944"/>
</mask>
<path d="M191.472 153.894C181.546 145.259 170.081 148.733 158.518 158.982L153.381 163.994C133.603 185.012 115.24 223.872 109.533 253.551C112.015 258.067 113.503 263.8 114.645 268.44L115.389 271.517L116.134 274.991C116.134 274.991 115.96 274.321 115.24 272.212L114.744 270.847C114.651 270.596 114.552 270.348 114.446 270.103C113.156 267.125 109.583 260.772 107.994 258.018C106.75 261.668 105.575 265.341 104.471 269.036C109.012 277.324 111.766 291.543 111.766 291.543C111.766 291.543 111.518 290.625 110.377 287.399C109.384 284.545 104.322 275.736 103.131 273.651C101.096 281.195 100.277 286.307 101.022 287.548C102.436 289.955 103.801 294.099 104.992 298.665C106.849 306.219 108.365 313.853 109.533 321.544L109.707 323.653C109.377 332.185 109.567 340.729 110.277 349.237C111.171 359.982 112.833 369.213 114.992 374.176L116.432 373.382C113.305 363.655 112.015 350.875 112.585 336.16C113.429 313.653 118.615 286.53 128.169 258.241C144.299 215.56 166.756 181.315 187.278 164.937C168.568 181.811 143.256 236.503 135.663 256.752C127.176 279.433 121.171 300.675 117.548 321.097C123.802 301.99 144.026 293.801 144.026 293.801C144.026 293.801 153.952 281.567 165.515 264.097L143.356 270.003L136.209 273.18C136.209 273.18 154.448 262.063 170.106 257.05C191.621 223.153 215.071 174.987 191.447 153.944" fill="#F4F4F4"/>
<path d="M158.518 158.982L157.854 158.233L157.836 158.249L157.819 158.266L158.518 158.982ZM153.381 163.994L152.683 163.278L152.667 163.293L152.653 163.309L153.381 163.994ZM109.533 253.551L108.551 253.362L108.483 253.717L108.657 254.033L109.533 253.551ZM114.645 268.44L115.617 268.205L115.616 268.201L114.645 268.44ZM115.389 271.517L116.367 271.308L116.364 271.295L116.361 271.282L115.389 271.517ZM116.134 274.991L115.166 275.242L117.112 274.782L116.134 274.991ZM115.24 272.212L116.187 271.889L116.184 271.88L116.18 271.87L115.24 272.212ZM114.744 270.847L115.684 270.505L115.682 270.499L114.744 270.847ZM114.446 270.103L115.365 269.708L115.364 269.705L114.446 270.103ZM107.994 258.018L108.861 257.518L107.76 255.609L107.048 257.695L107.994 258.018ZM104.471 269.036L103.513 268.749L103.393 269.15L103.594 269.516L104.471 269.036ZM111.766 291.543L110.801 291.804L112.748 291.353L111.766 291.543ZM110.377 287.399L109.432 287.727L109.434 287.732L110.377 287.399ZM103.131 273.651L103.999 273.155L102.796 271.051L102.165 273.391L103.131 273.651ZM101.022 287.548L101.884 287.041L101.879 287.033L101.022 287.548ZM104.992 298.665L105.963 298.426L105.96 298.412L104.992 298.665ZM109.533 321.544L110.53 321.462L110.527 321.428L110.522 321.394L109.533 321.544ZM109.707 323.653L110.706 323.692L110.708 323.631L110.703 323.571L109.707 323.653ZM110.277 349.237L111.274 349.155L111.274 349.154L110.277 349.237ZM114.992 374.176L114.075 374.575L114.514 375.583L115.475 375.052L114.992 374.176ZM116.432 373.382L116.915 374.258L117.636 373.86L117.384 373.076L116.432 373.382ZM112.585 336.16L113.585 336.199L113.585 336.197L112.585 336.16ZM128.169 258.241L127.234 257.888L127.227 257.904L127.222 257.921L128.169 258.241ZM187.278 164.937L187.948 165.68L186.654 164.155L187.278 164.937ZM135.663 256.752L134.727 256.401L134.727 256.402L135.663 256.752ZM117.548 321.097L116.564 320.923L118.499 321.408L117.548 321.097ZM144.026 293.801L144.401 294.728L144.64 294.631L144.802 294.431L144.026 293.801ZM165.515 264.097L166.349 264.649L167.803 262.453L165.258 263.131L165.515 264.097ZM143.356 270.003L143.098 269.037L143.022 269.057L142.95 269.09L143.356 270.003ZM136.209 273.18L135.689 272.326L136.615 274.094L136.209 273.18ZM170.106 257.05L170.411 258.002L170.756 257.892L170.951 257.586L170.106 257.05ZM192.128 153.14C186.939 148.626 181.282 147.245 175.42 148.375C169.617 149.493 163.7 153.052 157.854 158.233L159.181 159.73C164.899 154.662 170.496 151.36 175.798 150.338C181.041 149.328 186.078 150.528 190.815 154.649L192.128 153.14ZM157.819 158.266L152.683 163.278L154.079 164.71L159.216 159.697L157.819 158.266ZM152.653 163.309C132.726 184.486 114.288 223.528 108.551 253.362L110.515 253.74C116.192 224.217 134.481 185.539 154.109 164.679L152.653 163.309ZM108.657 254.033C111.065 258.417 112.529 264.023 113.674 268.679L115.616 268.201C114.478 263.576 112.964 257.718 110.409 253.07L108.657 254.033ZM113.673 268.675L114.417 271.752L116.361 271.282L115.617 268.205L113.673 268.675ZM114.412 271.727L115.156 275.201L117.112 274.782L116.367 271.308L114.412 271.727ZM116.134 274.991C117.102 274.74 117.102 274.74 117.102 274.74C117.102 274.74 117.102 274.74 117.102 274.74C117.102 274.74 117.102 274.739 117.102 274.739C117.101 274.739 117.101 274.738 117.101 274.738C117.101 274.737 117.101 274.736 117.1 274.735C117.1 274.732 117.099 274.729 117.098 274.725C117.096 274.717 117.093 274.707 117.089 274.694C117.082 274.667 117.071 274.629 117.056 274.577C117.027 274.474 116.981 274.318 116.912 274.097C116.776 273.655 116.549 272.951 116.187 271.889L114.294 272.535C114.651 273.582 114.872 274.268 115.002 274.688C115.067 274.898 115.109 275.041 115.134 275.13C115.147 275.174 115.156 275.205 115.161 275.223C115.163 275.232 115.165 275.238 115.166 275.241C115.166 275.243 115.166 275.244 115.166 275.244C115.166 275.244 115.166 275.244 115.166 275.243C115.166 275.243 115.166 275.243 115.166 275.243C115.166 275.243 115.166 275.243 115.166 275.243C115.166 275.243 115.166 275.242 115.166 275.242C115.166 275.242 115.166 275.242 116.134 274.991ZM116.18 271.87L115.684 270.505L113.804 271.189L114.301 272.554L116.18 271.87ZM115.682 270.499C115.583 270.233 115.477 269.969 115.365 269.708L113.528 270.497C113.626 270.728 113.719 270.96 113.807 271.195L115.682 270.499ZM115.364 269.705C114.046 266.664 110.441 260.258 108.861 257.518L107.128 258.517C108.725 261.286 112.266 267.586 113.529 270.5L115.364 269.705ZM107.048 257.695C105.799 261.357 104.62 265.042 103.513 268.749L105.429 269.322C106.529 265.639 107.7 261.978 108.941 258.341L107.048 257.695ZM103.594 269.516C105.806 273.553 107.605 279.086 108.857 283.661C109.48 285.939 109.963 287.96 110.289 289.411C110.453 290.137 110.577 290.719 110.66 291.119C110.702 291.319 110.733 291.474 110.754 291.578C110.764 291.63 110.772 291.669 110.777 291.695C110.78 291.708 110.782 291.718 110.783 291.724C110.784 291.727 110.784 291.73 110.784 291.731C110.784 291.732 110.785 291.732 110.785 291.733C110.785 291.733 110.785 291.733 110.785 291.733C110.785 291.733 110.785 291.733 111.766 291.543C112.748 291.353 112.748 291.352 112.748 291.352C112.748 291.352 112.748 291.352 112.748 291.352C112.748 291.351 112.748 291.35 112.747 291.349C112.747 291.347 112.747 291.344 112.746 291.341C112.744 291.333 112.742 291.323 112.739 291.308C112.734 291.28 112.726 291.239 112.715 291.184C112.693 291.076 112.661 290.917 112.618 290.712C112.533 290.302 112.407 289.709 112.241 288.972C111.909 287.498 111.419 285.447 110.786 283.133C109.526 278.527 107.677 272.806 105.348 268.555L103.594 269.516ZM111.766 291.543C112.732 291.282 112.732 291.282 112.732 291.282C112.732 291.282 112.732 291.281 112.732 291.281C112.732 291.281 112.731 291.281 112.731 291.281C112.731 291.28 112.731 291.28 112.731 291.279C112.731 291.278 112.73 291.277 112.73 291.275C112.729 291.272 112.728 291.268 112.727 291.263C112.724 291.253 112.72 291.239 112.715 291.221C112.704 291.185 112.689 291.133 112.667 291.061C112.624 290.917 112.555 290.694 112.451 290.373C112.243 289.729 111.892 288.684 111.319 287.065L109.434 287.732C110.003 289.339 110.347 290.366 110.548 290.988C110.649 291.299 110.713 291.508 110.752 291.637C110.772 291.702 110.785 291.746 110.792 291.773C110.796 291.786 110.799 291.795 110.8 291.8C110.801 291.803 110.801 291.804 110.801 291.805C110.801 291.805 110.801 291.805 110.801 291.805C110.801 291.805 110.801 291.805 110.801 291.805C110.801 291.804 110.801 291.804 110.801 291.804C110.801 291.804 110.801 291.804 110.801 291.804C110.801 291.804 110.801 291.804 111.766 291.543ZM111.321 287.07C110.792 285.548 109.231 282.552 107.706 279.757C106.162 276.928 104.594 274.196 103.999 273.155L102.263 274.147C102.859 275.191 104.417 277.906 105.95 280.715C107.503 283.56 108.969 286.395 109.432 287.727L111.321 287.07ZM102.165 273.391C101.143 277.179 100.42 280.383 100.046 282.811C99.8589 284.022 99.7551 285.068 99.7509 285.909C99.747 286.691 99.8232 287.494 100.164 288.062L101.879 287.033C101.881 287.036 101.869 287.017 101.853 286.965C101.836 286.914 101.818 286.841 101.802 286.742C101.769 286.541 101.749 286.27 101.751 285.919C101.754 285.216 101.843 284.28 102.022 283.115C102.38 280.791 103.083 277.667 104.096 273.912L102.165 273.391ZM100.159 288.054C101.496 290.329 102.833 294.351 104.024 298.917L105.96 298.412C104.768 293.846 103.376 289.58 101.884 287.041L100.159 288.054ZM104.021 298.903C105.871 306.428 107.38 314.033 108.544 321.694L110.522 321.394C109.349 313.673 107.828 306.009 105.963 298.426L104.021 298.903ZM108.536 321.626L108.71 323.735L110.703 323.571L110.53 321.462L108.536 321.626ZM108.707 323.615C108.376 332.187 108.567 340.772 109.281 349.321L111.274 349.154C110.567 340.686 110.377 332.183 110.706 323.692L108.707 323.615ZM109.281 349.32C110.175 360.075 111.846 369.45 114.075 374.575L115.909 373.777C113.821 368.977 112.167 359.89 111.274 349.155L109.281 349.32ZM115.475 375.052L116.915 374.258L115.948 372.507L114.509 373.301L115.475 375.052ZM117.384 373.076C114.305 363.499 113.016 350.847 113.585 336.199L111.586 336.121C111.013 350.903 112.304 363.81 115.48 373.688L117.384 373.076ZM113.585 336.197C114.424 313.804 119.587 286.777 129.116 258.561L127.222 257.921C117.643 286.283 112.434 313.502 111.586 336.122L113.585 336.197ZM129.104 258.595C145.203 215.995 167.578 181.938 187.902 165.719L186.654 164.155C165.934 180.692 143.394 215.124 127.234 257.888L129.104 258.595ZM186.608 164.194C177.103 172.767 166.025 190.814 156.416 209.114C146.784 227.459 138.54 246.232 134.727 256.401L136.599 257.103C140.38 247.023 148.588 228.326 158.187 210.044C167.81 191.718 178.743 173.981 187.948 165.68L186.608 164.194ZM134.727 256.402C126.222 279.129 120.199 300.43 116.564 320.923L118.533 321.272C122.143 300.919 128.13 279.737 136.6 257.103L134.727 256.402ZM118.499 321.408C121.539 312.118 127.99 305.446 133.737 301.08C136.605 298.901 139.282 297.308 141.24 296.261C142.218 295.738 143.015 295.352 143.564 295.098C143.839 294.971 144.051 294.877 144.194 294.816C144.265 294.785 144.318 294.762 144.353 294.748C144.371 294.74 144.383 294.735 144.392 294.732C144.396 294.73 144.398 294.729 144.4 294.728C144.401 294.728 144.401 294.728 144.401 294.728C144.401 294.728 144.401 294.728 144.401 294.728C144.401 294.728 144.401 294.728 144.026 293.801C143.65 292.874 143.65 292.874 143.65 292.874C143.649 292.874 143.649 292.875 143.648 292.875C143.647 292.875 143.646 292.876 143.644 292.877C143.641 292.878 143.636 292.88 143.631 292.882C143.619 292.887 143.603 292.894 143.582 292.902C143.54 292.92 143.479 292.946 143.401 292.98C143.244 293.047 143.016 293.148 142.725 293.282C142.144 293.551 141.312 293.954 140.296 294.497C138.266 295.583 135.496 297.231 132.527 299.488C126.598 303.992 119.811 310.97 116.598 320.786L118.499 321.408ZM144.026 293.801C144.802 294.431 144.802 294.431 144.802 294.431C144.803 294.431 144.803 294.43 144.803 294.43C144.803 294.43 144.804 294.429 144.804 294.428C144.806 294.427 144.808 294.424 144.81 294.421C144.815 294.415 144.823 294.406 144.832 294.394C144.852 294.37 144.881 294.334 144.919 294.286C144.996 294.191 145.109 294.05 145.257 293.865C145.552 293.494 145.987 292.945 146.545 292.233C147.66 290.808 149.266 288.727 151.235 286.1C155.17 280.846 160.554 273.404 166.349 264.649L164.682 263.545C158.913 272.261 153.552 279.671 149.634 284.901C147.675 287.516 146.077 289.585 144.97 291C144.416 291.708 143.985 292.251 143.693 292.618C143.547 292.801 143.436 292.94 143.361 293.032C143.324 293.079 143.295 293.114 143.277 293.137C143.267 293.148 143.26 293.157 143.256 293.163C143.253 293.166 143.252 293.168 143.251 293.169C143.25 293.17 143.25 293.17 143.249 293.17C143.249 293.171 143.249 293.171 143.249 293.171C143.249 293.171 143.249 293.171 144.026 293.801ZM165.258 263.131L143.098 269.037L143.613 270.97L165.773 265.064L165.258 263.131ZM142.95 269.09L135.803 272.266L136.615 274.094L143.762 270.917L142.95 269.09ZM136.209 273.18C136.73 274.034 136.73 274.034 136.73 274.034C136.73 274.033 136.73 274.033 136.73 274.033C136.73 274.033 136.731 274.033 136.732 274.032C136.734 274.031 136.737 274.029 136.742 274.026C136.75 274.021 136.763 274.013 136.78 274.003C136.814 273.982 136.865 273.951 136.933 273.911C137.069 273.829 137.271 273.708 137.533 273.552C138.059 273.241 138.828 272.79 139.801 272.232C141.747 271.116 144.504 269.577 147.749 267.881C154.248 264.484 162.663 260.483 170.411 258.002L169.801 256.098C161.891 258.63 153.357 262.693 146.823 266.108C143.55 267.818 140.77 269.371 138.806 270.497C137.824 271.06 137.046 271.516 136.513 271.832C136.247 271.99 136.041 272.113 135.902 272.197C135.833 272.239 135.78 272.271 135.744 272.292C135.726 272.303 135.712 272.311 135.703 272.317C135.698 272.32 135.695 272.322 135.693 272.323C135.691 272.324 135.69 272.325 135.69 272.325C135.689 272.325 135.689 272.326 135.689 272.326C135.689 272.326 135.689 272.326 136.209 273.18ZM170.951 257.586C181.724 240.613 193.024 220.004 198.662 200.961C204.28 181.989 204.394 164.138 192.112 153.197L190.782 154.691C202.124 164.794 202.325 181.547 196.745 200.393C191.185 219.168 180.003 239.59 169.262 256.514L170.951 257.586Z" fill="#CECECE" mask="url(#path-4-inside-1)"/>
</svg>
