<svg width="512" height="490" viewBox="0 0 512 490" fill="none" xmlns="http://www.w3.org/2000/svg">
<g id="tnymunProject">
<g id="computer">
<path id="Vector" d="M283.887 401.771L197.208 432.676L193.921 444.162C189.255 460.511 171.525 473.883 154.527 473.883V481.61H334.294L283.887 401.771Z" fill="#626262"/>
<path id="Vector_2" d="M318.079 444.163L305.964 401.771L256 370.865L206.037 401.771L197.208 432.676H283.887L287.174 444.163C291.84 460.512 309.57 473.883 326.568 473.883L342.021 481.61L357.473 473.883C340.475 473.883 322.746 460.512 318.079 444.163Z" fill="#444444"/>
<path id="Vector_3" d="M450.189 401.77H481.095C498.093 401.77 512 387.863 512 370.865V309.054L450.189 247.243V401.77Z" fill="#444444"/>
<path id="Vector_4" d="M0 370.865C0 387.863 13.9074 401.771 30.9054 401.771H450.189C467.187 401.771 481.095 387.863 481.095 370.865V185.433L0 309.054V370.865Z" fill="#626262"/>
<path id="Vector_5" d="M481.095 0H450.189L481.095 309.054H512V30.9054C512 13.9074 498.093 0 481.095 0Z" fill="black"/>
<path id="Vector_6" d="M481.095 30.9054C481.095 13.9074 467.187 0 450.189 0H30.9054C13.9074 0 0 13.9074 0 30.9054V309.054H481.095V278.149V146V30.9054Z" fill="#121212"/>
<path id="Vector_7" d="M256 370.865C264.534 370.865 271.452 363.947 271.452 355.413C271.452 346.878 264.534 339.96 256 339.96C247.465 339.96 240.547 346.878 240.547 355.413C240.547 363.947 247.465 370.865 256 370.865Z" fill="white"/>
<path id="Vector_8" d="M415.678 489.336H96.3221C92.0551 489.336 88.5957 485.877 88.5957 481.609C88.5957 477.341 92.0551 473.883 96.3221 473.883H415.678C419.945 473.883 423.405 477.341 423.405 481.609C423.405 485.877 419.945 489.336 415.678 489.336Z" fill="#444444"/>
</g>
<g id="tnymun">
<g id="bg">
<path id="Vector_9" d="M481 31.0226L31.0973 31C31.0697 31.0123 31.0464 277.995 31 278C31 278 480.978 277.979 480.989 277.979C480.994 277.979 480.954 31.0268 481 31.0226Z" fill="#4876B9"/>
<path id="Vector 3" d="M320 84L346 66L412 117L440 262C399.5 262 335.5 233 335.5 233L320 84Z" fill="#3E3E3E"/>
<path id="Vector 4" d="M42 235L34 278H459L455.5 263C296.5 253 130.5 101 130.5 101L42 235Z" fill="#656565"/>
<path id="Vector_10" d="M481 31.0226L31.0973 31C31.0697 31.0123 31.0464 277.995 31 278C31 278 480.978 277.979 480.989 277.979C480.994 277.979 480.954 31.0268 481 31.0226Z" fill="black" fill-opacity="0.5"/>
</g>
<g id="logo">
<path id="Vector 2" d="M98 37H40C37.7909 37 36 38.7909 36 41V63C36 65.2091 37.7909 67 40 67H98C100.209 67 102 65.2091 102 63V41C102 38.7909 100.209 37 98 37Z" fill="#FF6000" stroke="#AD4201"/>
<rect id="Rectangle 3" x="38" y="40" width="61" height="7" rx="2" fill="white"/>
<rect id="Rectangle 4" x="38" y="49" width="56" height="7" rx="2" fill="white"/>
<rect id="Rectangle 5" x="38" y="58" width="32" height="7" rx="2" fill="white"/>
<rect id="Rectangle 6" x="73" y="58" width="19" height="7" rx="2" fill="#AD4201"/>
</g>
<g id="nav">
<rect id="Rectangle 7" x="264" y="48" width="68" height="10" rx="3" fill="white"/>
<rect id="Rectangle 8" x="350" y="48" width="55" height="10" rx="3" fill="white"/>
<rect id="Rectangle 9" x="423" y="48" width="47" height="10" rx="3" fill="white"/>
</g>
<g id="heading">
<rect id="Rectangle 10" x="44" y="129" width="251" height="20" rx="5" fill="white"/>
<rect id="Rectangle 11" x="44" y="159" width="280" height="20" rx="5" fill="white"/>
<rect id="Rectangle 12" x="44" y="189" width="89" height="20" rx="5" fill="white"/>
<rect id="Rectangle 13" x="44" y="215" width="39" height="5" rx="1" fill="#787878"/>
</g>
</g>
</g>
</svg>
